<?xml version="1.0" encoding="UTF-8" standalone="no"?>
<svg 
id="svg" version="1.1" xmlns="http://www.w3.org/2000/svg" xmlns:xlink="http://www.w3.org/1999/xlink" width="400" height="400" viewBox="0, 0, 400,400">
<g id="svgg">
<path id="path0" d="M180.600 66.537 C 170.645 70.202,160.768 73.840,158.650 74.622 L 154.800 76.044 154.800 95.222 L 154.800 114.400 143.900 114.400 L 133.000 114.400 133.000 132.100 L 133.000 149.800 143.894 149.800 L 154.788 149.800 154.861 200.950 C 154.915 238.081,154.999 252.648,155.168 254.100 C 158.475 282.576,171.900 299.056,196.200 304.470 C 210.648 307.689,239.698 306.260,254.850 301.585 L 256.800 300.983 256.800 280.775 C 256.800 269.660,256.732 260.597,256.649 260.633 C 256.565 260.670,255.553 261.236,254.399 261.891 C 244.976 267.237,232.966 269.860,222.700 268.812 C 206.586 267.167,200.341 259.179,199.006 238.503 C 198.875 236.471,198.800 219.740,198.800 192.553 L 198.800 149.800 224.700 149.800 L 250.600 149.800 250.600 132.100 L 250.600 114.400 224.701 114.400 L 198.801 114.400 198.751 87.137 L 198.700 59.874 180.600 66.537 " stroke="none" fill="#dbdbdb" fill-rule="evenodd">
</path>
<path id="path1" d="M109.900 0.129 C 105.468 0.490,103.604 0.687,100.600 1.115 C 46.839 8.774,6.056 51.689,0.359 106.600 C -0.023 110.282,-0.023 289.718,0.359 293.400 C 6.299 350.650,49.350 393.701,106.600 399.641 C 110.282 400.023,289.718 400.023,293.400 399.641 C 350.650 393.701,393.701 350.650,399.641 293.400 C 400.023 289.718,400.023 110.282,399.641 106.600 C 396.114 72.606,379.629 43.196,352.924 23.250 C 335.803 10.463,317.204 3.196,294.600 0.461 C 291.975 0.143,113.666 -0.177,109.900 0.129 M199.000 87.100 L 199.000 114.400 224.800 114.400 L 250.600 114.400 250.600 132.000 C 250.600 151.444,250.668 150.400,249.400 150.400 C 249.107 150.400,249.000 150.533,249.000 150.900 C 249.000 151.303,248.901 151.400,248.487 151.400 C 248.071 151.400,247.987 151.484,248.037 151.850 C 248.084 152.185,247.988 152.316,247.662 152.362 C 247.390 152.401,247.201 152.590,247.162 152.862 C 247.123 153.135,246.935 153.323,246.662 153.362 C 246.390 153.401,246.201 153.590,246.162 153.862 C 246.123 154.135,245.935 154.323,245.662 154.362 C 245.390 154.401,245.201 154.590,245.162 154.862 C 245.123 155.139,244.935 155.323,244.650 155.364 C 244.361 155.405,244.200 155.566,244.200 155.814 C 244.200 156.092,244.061 156.200,243.700 156.200 C 243.300 156.200,243.200 156.300,243.200 156.700 C 243.200 157.100,243.100 157.200,242.700 157.200 C 242.333 157.200,242.200 157.307,242.200 157.600 C 242.200 157.841,241.333 158.871,240.009 160.200 L 237.818 162.400 218.409 162.400 L 199.000 162.400 199.000 199.871 C 199.000 223.076,199.076 238.324,199.201 239.921 C 200.841 261.018,208.417 268.811,227.300 268.827 C 237.401 268.836,246.361 266.442,255.052 261.414 C 256.016 260.856,256.849 260.400,256.902 260.400 C 256.956 260.400,257.000 269.496,257.000 280.613 L 257.000 300.827 256.300 301.487 C 255.915 301.850,255.600 302.254,255.600 302.384 C 255.600 302.514,255.330 302.715,255.000 302.830 C 254.617 302.964,254.400 303.177,254.400 303.420 C 254.400 303.668,254.260 303.800,253.995 303.800 C 253.747 303.800,253.516 303.994,253.400 304.300 C 253.295 304.575,253.073 304.800,252.905 304.800 C 252.734 304.800,252.600 304.974,252.600 305.196 C 252.600 305.455,252.422 305.637,252.085 305.722 C 251.802 305.793,251.490 306.064,251.390 306.325 C 251.291 306.586,251.073 306.800,250.905 306.800 C 250.734 306.800,250.600 306.974,250.600 307.196 C 250.600 307.455,250.422 307.637,250.085 307.722 C 249.802 307.793,249.490 308.064,249.390 308.325 C 249.291 308.586,249.077 308.800,248.914 308.800 C 248.752 308.800,248.469 309.115,248.287 309.500 C 248.104 309.885,247.878 310.200,247.784 310.200 C 247.540 310.200,246.400 311.347,246.400 311.593 C 246.400 311.707,246.280 311.800,246.134 311.800 C 245.987 311.800,245.747 312.025,245.600 312.300 C 245.453 312.575,245.253 312.800,245.157 312.800 C 245.060 312.800,244.771 313.026,244.516 313.302 C 243.145 314.781,232.018 317.149,222.000 318.093 C 209.286 319.292,195.931 319.286,188.000 318.077 C 162.074 314.125,146.215 297.036,142.922 269.500 C 142.244 263.828,142.202 260.434,142.201 211.350 L 142.200 162.400 131.300 162.400 L 120.400 162.400 120.400 144.700 C 120.400 129.100,120.436 127.000,120.700 127.000 C 120.865 127.000,121.000 126.904,121.000 126.786 C 121.000 126.668,121.129 126.443,121.286 126.286 C 121.443 126.129,121.668 126.000,121.786 126.000 C 121.904 126.000,122.000 125.903,122.000 125.785 C 122.000 125.666,122.263 125.306,122.585 124.985 C 122.906 124.663,123.266 124.400,123.385 124.400 C 123.503 124.400,123.600 124.304,123.600 124.186 C 123.600 124.068,123.729 123.843,123.886 123.686 C 124.043 123.529,124.268 123.400,124.386 123.400 C 124.504 123.400,124.600 123.265,124.600 123.100 C 124.600 122.935,124.774 122.800,124.986 122.800 C 125.234 122.800,125.395 122.639,125.436 122.350 C 125.482 122.028,125.656 121.882,126.050 121.837 C 126.482 121.787,126.600 121.669,126.600 121.287 C 126.600 120.901,126.704 120.800,127.100 120.800 C 127.500 120.800,127.600 120.700,127.600 120.300 C 127.600 119.939,127.708 119.800,127.986 119.800 C 128.234 119.800,128.395 119.639,128.436 119.350 C 128.482 119.028,128.656 118.882,129.050 118.837 C 129.482 118.787,129.600 118.669,129.600 118.287 C 129.600 117.939,129.710 117.800,129.986 117.800 C 130.234 117.800,130.395 117.639,130.436 117.350 C 130.477 117.065,130.661 116.877,130.938 116.838 C 131.210 116.799,131.399 116.610,131.438 116.338 C 131.487 115.991,131.615 115.912,132.050 115.958 C 132.521 116.007,132.600 115.942,132.600 115.508 C 132.600 115.228,132.690 115.000,132.800 115.000 C 132.910 115.000,133.000 114.865,133.000 114.700 C 133.000 114.442,133.644 114.400,137.600 114.400 L 142.200 114.400 142.200 101.611 L 142.200 88.821 144.519 86.511 C 145.795 85.240,146.965 84.200,147.119 84.200 C 147.274 84.200,147.400 84.022,147.400 83.804 C 147.400 83.548,147.577 83.363,147.900 83.282 C 148.199 83.207,148.400 83.014,148.400 82.800 C 148.400 82.586,148.601 82.393,148.900 82.318 C 149.211 82.240,149.400 82.051,149.400 81.818 C 149.400 81.585,149.589 81.396,149.900 81.318 C 150.211 81.240,150.400 81.051,150.400 80.818 C 150.400 80.585,150.589 80.396,150.900 80.318 C 151.211 80.240,151.400 80.051,151.400 79.818 C 151.400 79.585,151.589 79.396,151.900 79.318 C 152.175 79.249,152.400 79.057,152.400 78.892 C 152.400 78.727,152.625 78.489,152.900 78.364 C 153.175 78.238,153.400 78.013,153.400 77.864 C 153.400 77.714,153.611 77.495,153.870 77.377 C 154.128 77.260,154.452 76.879,154.588 76.532 C 154.833 75.909,155.150 75.784,176.668 67.858 C 188.676 63.435,198.613 59.813,198.750 59.808 C 198.949 59.802,199.000 65.389,199.000 87.100 " stroke="none" fill="#0c0c0c" fill-rule="evenodd">
</path>
<path id="path2" d="M154.400 76.978 C 154.400 77.215,154.213 77.404,153.900 77.482 C 153.589 77.560,153.400 77.749,153.400 77.982 C 153.400 78.215,153.211 78.404,152.900 78.482 C 152.589 78.560,152.400 78.749,152.400 78.982 C 152.400 79.215,152.211 79.404,151.900 79.482 C 151.589 79.560,151.400 79.749,151.400 79.982 C 151.400 80.215,151.211 80.404,150.900 80.482 C 150.625 80.551,150.400 80.743,150.400 80.908 C 150.400 81.073,150.178 81.310,149.906 81.434 C 149.635 81.557,149.448 81.715,149.491 81.785 C 149.534 81.854,148.854 82.584,147.980 83.406 C 147.106 84.228,145.493 85.782,144.396 86.860 L 142.400 88.819 142.400 101.610 L 142.400 114.400 148.600 114.400 L 154.800 114.400 154.800 95.500 C 154.800 83.033,154.732 76.600,154.600 76.600 C 154.490 76.600,154.400 76.770,154.400 76.978 M132.600 115.500 C 132.600 115.900,132.500 116.000,132.100 116.000 C 131.700 116.000,131.600 116.100,131.600 116.500 C 131.600 116.900,131.500 117.000,131.100 117.000 C 130.700 117.000,130.600 117.100,130.600 117.500 C 130.600 117.900,130.500 118.000,130.100 118.000 C 129.700 118.000,129.600 118.100,129.600 118.500 C 129.600 118.900,129.500 119.000,129.100 119.000 C 128.700 119.000,128.600 119.100,128.600 119.500 C 128.600 119.900,128.500 120.000,128.100 120.000 C 127.700 120.000,127.600 120.100,127.600 120.500 C 127.600 120.900,127.500 121.000,127.100 121.000 C 126.700 121.000,126.600 121.100,126.600 121.500 C 126.600 121.900,126.500 122.000,126.100 122.000 C 125.700 122.000,125.600 122.100,125.600 122.500 C 125.600 122.840,125.488 123.002,125.250 123.006 C 124.818 123.014,124.200 123.465,124.200 123.772 C 124.200 123.897,124.065 124.000,123.900 124.000 C 123.735 124.000,123.600 124.096,123.600 124.214 C 123.600 124.475,123.098 125.000,122.848 125.000 C 122.749 125.000,122.547 125.225,122.400 125.500 C 122.253 125.775,122.013 126.000,121.866 126.000 C 121.720 126.000,121.600 126.135,121.600 126.300 C 121.600 126.465,121.465 126.600,121.300 126.600 C 121.135 126.600,121.000 126.735,121.000 126.900 C 121.000 127.065,120.910 127.200,120.800 127.200 C 120.668 127.200,120.600 133.166,120.600 144.698 L 120.600 162.197 131.450 162.248 L 142.300 162.300 142.411 213.700 C 142.527 267.483,142.501 265.948,143.420 272.100 C 147.339 298.322,163.513 314.640,189.000 318.085 C 200.087 319.583,220.427 318.802,233.500 316.376 C 238.038 315.534,243.969 313.913,244.140 313.469 C 244.196 313.321,244.320 313.200,244.415 313.200 C 244.660 313.200,245.800 312.054,245.800 311.807 C 245.800 311.693,245.920 311.600,246.066 311.600 C 246.213 311.600,246.453 311.375,246.600 311.100 C 246.747 310.825,246.939 310.600,247.027 310.600 C 247.313 310.600,248.400 309.421,248.400 309.111 C 248.400 308.944,248.625 308.751,248.900 308.682 C 249.211 308.604,249.400 308.415,249.400 308.182 C 249.400 307.949,249.589 307.760,249.900 307.682 C 250.175 307.613,250.400 307.433,250.400 307.283 C 250.400 307.132,250.625 306.862,250.900 306.682 C 251.175 306.501,251.400 306.231,251.400 306.081 C 251.400 305.931,251.625 305.751,251.900 305.682 C 252.175 305.613,252.400 305.429,252.400 305.274 C 252.400 305.119,252.625 304.889,252.900 304.764 C 253.175 304.638,253.400 304.372,253.400 304.172 C 253.400 303.950,253.596 303.758,253.900 303.682 C 254.199 303.607,254.400 303.414,254.400 303.200 C 254.400 302.986,254.601 302.793,254.900 302.718 C 255.175 302.649,255.400 302.457,255.400 302.292 C 255.400 302.127,255.620 301.891,255.889 301.769 C 257.162 301.189,256.341 301.168,254.603 301.736 C 245.806 304.613,232.582 306.100,215.800 306.100 C 205.590 306.100,204.416 306.035,199.335 305.182 C 175.500 301.184,160.225 285.563,156.014 260.881 C 154.858 254.107,154.931 257.867,154.858 201.650 L 154.790 150.000 143.895 150.000 L 133.000 150.000 133.000 132.500 C 133.000 120.967,132.932 115.000,132.800 115.000 C 132.690 115.000,132.600 115.225,132.600 115.500 M224.450 149.950 L 199.000 150.002 199.000 156.101 L 199.000 162.200 218.400 162.200 C 231.200 162.200,237.800 162.132,237.800 162.000 C 237.800 161.890,237.935 161.800,238.100 161.800 C 238.265 161.800,238.400 161.665,238.400 161.500 C 238.400 161.335,238.496 161.200,238.614 161.200 C 238.891 161.200,239.400 160.691,239.400 160.414 C 239.400 160.296,239.535 160.200,239.700 160.200 C 239.865 160.200,240.000 160.104,240.000 159.986 C 240.000 159.709,240.509 159.200,240.786 159.200 C 240.904 159.200,241.000 159.065,241.000 158.900 C 241.000 158.735,241.096 158.600,241.214 158.600 C 241.567 158.600,242.000 158.057,242.000 157.614 C 242.000 157.306,242.128 157.200,242.500 157.200 C 242.900 157.200,243.000 157.100,243.000 156.700 C 243.000 156.300,243.100 156.200,243.500 156.200 C 243.900 156.200,244.000 156.100,244.000 155.700 C 244.000 155.300,244.100 155.200,244.500 155.200 C 244.900 155.200,245.000 155.100,245.000 154.700 C 245.000 154.300,245.100 154.200,245.500 154.200 C 245.900 154.200,246.000 154.100,246.000 153.700 C 246.000 153.300,246.100 153.200,246.500 153.200 C 246.900 153.200,247.000 153.100,247.000 152.700 C 247.000 152.300,247.100 152.200,247.500 152.200 C 247.900 152.200,248.000 152.100,248.000 151.700 C 248.000 151.300,248.100 151.200,248.500 151.200 C 248.900 151.200,249.000 151.100,249.000 150.700 C 249.000 150.300,249.100 150.200,249.500 150.200 C 249.775 150.200,250.000 150.110,250.000 150.000 C 250.000 149.890,249.978 149.822,249.950 149.849 C 249.923 149.876,238.447 149.922,224.450 149.950 M198.846 234.000 C 198.846 234.385,198.888 234.543,198.938 234.350 C 198.988 234.157,198.988 233.843,198.938 233.650 C 198.888 233.457,198.846 233.615,198.846 234.000 " stroke="none" fill="#6c6c6c" fill-rule="evenodd"></path><path id="path3" d="M138.464 149.950 C 141.524 149.981,146.474 149.981,149.464 149.950 C 152.454 149.919,149.950 149.893,143.900 149.893 C 137.850 149.893,135.404 149.919,138.464 149.950 M198.847 156.150 L 198.894 162.500 198.950 156.251 L 199.006 150.002 224.453 149.950 L 249.900 149.898 224.350 149.849 L 198.800 149.800 198.847 156.150 M198.860 235.600 C 198.860 236.205,198.897 236.453,198.943 236.150 C 198.989 235.847,198.989 235.353,198.943 235.050 C 198.897 234.748,198.860 234.995,198.860 235.600 M154.860 250.000 C 154.860 250.605,154.897 250.853,154.943 250.550 C 154.989 250.248,154.989 249.753,154.943 249.450 C 154.897 249.148,154.860 249.395,154.860 250.000 M155.046 253.200 C 155.046 253.585,155.088 253.743,155.138 253.550 C 155.188 253.357,155.188 253.043,155.138 252.850 C 155.088 252.657,155.046 252.815,155.046 253.200 M256.750 273.450 C 256.778 280.627,256.824 289.785,256.853 293.800 C 256.882 297.815,256.926 291.943,256.953 280.750 C 256.979 269.558,256.933 260.400,256.850 260.400 C 256.768 260.400,256.723 266.272,256.750 273.450 M223.850 268.938 C 224.043 268.988,224.357 268.988,224.550 268.938 C 224.743 268.888,224.585 268.846,224.200 268.846 C 223.815 268.846,223.657 268.888,223.850 268.938 M230.050 268.938 C 230.243 268.988,230.558 268.988,230.750 268.938 C 230.943 268.888,230.785 268.846,230.400 268.846 C 230.015 268.846,229.857 268.888,230.050 268.938 M161.200 277.675 C 161.200 277.891,161.994 279.400,162.108 279.400 C 162.163 279.400,162.015 279.018,161.779 278.550 C 161.316 277.631,161.200 277.456,161.200 277.675 M170.600 291.100 C 171.641 292.145,172.537 293.000,172.592 293.000 C 172.647 293.000,171.841 292.145,170.800 291.100 C 169.759 290.055,168.863 289.200,168.808 289.200 C 168.753 289.200,169.559 290.055,170.600 291.100 M232.450 305.538 C 232.643 305.588,232.957 305.588,233.150 305.538 C 233.343 305.488,233.185 305.446,232.800 305.446 C 232.415 305.446,232.257 305.488,232.450 305.538 M229.850 305.738 C 230.043 305.788,230.357 305.788,230.550 305.738 C 230.743 305.688,230.585 305.646,230.200 305.646 C 229.815 305.646,229.657 305.688,229.850 305.738 M204.850 305.938 C 205.043 305.988,205.357 305.988,205.550 305.938 C 205.743 305.888,205.585 305.846,205.200 305.846 C 204.815 305.846,204.658 305.888,204.850 305.938 M226.550 305.941 C 226.798 305.989,227.203 305.989,227.450 305.941 C 227.697 305.893,227.495 305.854,227.000 305.854 C 226.505 305.854,226.303 305.893,226.550 305.941 M207.550 306.141 C 207.798 306.189,208.203 306.189,208.450 306.141 C 208.697 306.093,208.495 306.054,208.000 306.054 C 207.505 306.054,207.303 306.093,207.550 306.141 M221.650 306.146 C 222.063 306.189,222.738 306.189,223.150 306.146 C 223.563 306.103,223.225 306.067,222.400 306.067 C 221.575 306.067,221.238 306.103,221.650 306.146 " stroke="none" fill="#747474" fill-rule="evenodd"></path><path id="path4" d="M198.897 87.100 C 198.897 102.170,198.921 108.305,198.950 100.734 C 198.979 93.163,198.979 80.833,198.950 73.334 C 198.921 65.835,198.897 72.030,198.897 87.100 M147.626 83.380 C 147.475 83.476,147.385 83.635,147.426 83.735 C 147.467 83.835,147.657 83.755,147.850 83.558 C 148.217 83.182,148.093 83.084,147.626 83.380 M146.514 84.514 C 146.039 84.990,146.138 85.114,146.650 84.683 C 146.898 84.475,147.138 84.281,147.183 84.252 C 147.229 84.223,147.168 84.200,147.048 84.200 C 146.927 84.200,146.687 84.341,146.514 84.514 M142.294 101.500 C 142.294 108.650,142.319 111.546,142.350 107.935 C 142.380 104.325,142.380 98.475,142.350 94.935 C 142.319 91.396,142.294 94.350,142.294 101.500 M131.533 115.933 C 131.460 116.007,131.400 116.225,131.400 116.419 C 131.400 116.633,131.222 116.797,130.950 116.836 C 130.665 116.877,130.477 117.061,130.438 117.338 C 130.400 117.601,130.201 117.809,129.938 117.860 C 129.577 117.930,129.597 117.950,130.050 117.973 C 130.511 117.996,130.600 117.919,130.600 117.500 C 130.600 117.100,130.700 117.000,131.100 117.000 C 131.495 117.000,131.600 116.899,131.600 116.517 C 131.600 116.251,131.713 115.988,131.850 115.932 C 131.990 115.876,132.004 115.825,131.883 115.816 C 131.764 115.807,131.607 115.860,131.533 115.933 M128.533 118.933 C 128.460 119.007,128.400 119.225,128.400 119.419 C 128.400 119.626,128.214 119.808,127.950 119.859 C 127.564 119.933,127.578 119.949,128.050 119.973 C 128.507 119.995,128.600 119.918,128.600 119.513 C 128.600 119.136,128.723 119.008,129.150 118.943 L 129.700 118.860 129.183 118.830 C 128.899 118.813,128.607 118.860,128.533 118.933 M125.533 121.933 C 125.460 122.007,125.400 122.232,125.400 122.433 C 125.400 122.667,125.255 122.800,125.000 122.800 C 124.780 122.800,124.600 122.878,124.600 122.972 C 124.600 123.067,124.825 123.102,125.100 123.049 C 125.462 122.980,125.600 122.825,125.600 122.490 C 125.600 122.138,125.732 122.007,126.150 121.943 L 126.700 121.860 126.183 121.830 C 125.899 121.813,125.607 121.860,125.533 121.933 M122.550 124.997 C 122.248 125.315,122.002 125.693,122.005 125.837 C 122.008 125.982,122.164 125.853,122.352 125.550 C 122.539 125.248,122.768 125.000,122.861 125.000 C 122.953 125.000,123.164 124.865,123.329 124.700 C 123.558 124.471,123.566 124.402,123.364 124.410 C 123.219 124.415,122.853 124.679,122.550 124.997 M120.400 144.700 L 120.400 162.400 131.300 162.400 L 142.199 162.400 142.250 211.950 L 142.301 261.500 142.301 211.900 L 142.300 162.300 131.450 162.248 L 120.600 162.197 120.600 144.715 C 120.600 130.917,120.653 127.212,120.850 127.132 C 120.999 127.072,120.959 127.025,120.750 127.016 C 120.419 127.001,120.400 127.970,120.400 144.700 M247.550 152.143 C 247.123 152.208,247.000 152.336,247.000 152.713 C 247.000 153.099,246.896 153.200,246.500 153.200 C 246.100 153.200,246.000 153.300,246.000 153.700 C 246.000 154.100,245.900 154.200,245.500 154.200 C 245.100 154.200,245.000 154.300,245.000 154.700 C 245.000 155.100,244.900 155.200,244.500 155.200 C 244.081 155.200,244.004 155.289,244.027 155.750 C 244.050 156.203,244.070 156.223,244.140 155.862 C 244.191 155.599,244.399 155.400,244.662 155.362 C 244.935 155.323,245.123 155.135,245.162 154.862 C 245.201 154.590,245.390 154.401,245.662 154.362 C 245.935 154.323,246.123 154.135,246.162 153.862 C 246.201 153.590,246.390 153.401,246.662 153.362 C 246.939 153.323,247.123 153.135,247.164 152.850 C 247.204 152.566,247.366 152.400,247.602 152.400 C 247.808 152.400,248.032 152.310,248.100 152.200 C 248.168 152.090,248.196 152.013,248.162 152.030 C 248.128 152.046,247.853 152.097,247.550 152.143 M241.000 158.900 C 241.000 159.065,240.904 159.200,240.786 159.200 C 240.509 159.200,240.000 159.709,240.000 159.986 C 240.000 160.104,239.865 160.200,239.700 160.200 C 239.535 160.200,239.400 160.342,239.400 160.515 C 239.400 160.732,239.604 160.623,240.050 160.170 C 240.407 159.806,240.916 159.304,241.179 159.054 C 241.560 158.693,241.591 158.600,241.329 158.600 C 241.148 158.600,241.000 158.735,241.000 158.900 M238.400 161.500 C 238.400 161.665,238.265 161.800,238.100 161.800 C 237.935 161.800,237.800 161.890,237.800 161.999 C 237.800 162.129,231.084 162.216,218.350 162.250 L 198.900 162.302 218.365 162.351 L 237.831 162.400 238.431 161.800 C 238.857 161.374,238.939 161.200,238.715 161.200 C 238.542 161.200,238.400 161.335,238.400 161.500 M198.898 198.000 C 198.898 217.525,198.921 225.513,198.950 215.750 C 198.979 205.988,198.979 190.013,198.950 180.250 C 198.921 170.488,198.898 178.475,198.898 198.000 M206.700 262.400 C 207.130 262.840,207.526 263.200,207.581 263.200 C 207.636 263.200,207.330 262.840,206.900 262.400 C 206.470 261.960,206.074 261.600,206.019 261.600 C 205.964 261.600,206.270 261.960,206.700 262.400 M142.467 263.800 C 142.467 264.625,142.503 264.963,142.546 264.550 C 142.589 264.137,142.589 263.463,142.546 263.050 C 142.503 262.637,142.467 262.975,142.467 263.800 M142.657 266.700 C 142.659 267.250,142.698 267.451,142.744 267.147 C 142.789 266.843,142.788 266.393,142.741 266.147 C 142.693 265.901,142.656 266.150,142.657 266.700 M142.846 268.800 C 142.846 269.185,142.888 269.343,142.938 269.150 C 142.988 268.957,142.988 268.643,142.938 268.450 C 142.888 268.257,142.846 268.415,142.846 268.800 M225.552 268.941 C 225.801 268.989,226.161 268.987,226.352 268.937 C 226.544 268.887,226.340 268.848,225.900 268.850 C 225.460 268.853,225.304 268.894,225.552 268.941 M228.350 268.941 C 228.597 268.989,229.003 268.989,229.250 268.941 C 229.498 268.893,229.295 268.854,228.800 268.854 C 228.305 268.854,228.103 268.893,228.350 268.941 M148.014 288.900 C 148.014 289.010,148.143 289.325,148.300 289.600 C 148.457 289.875,148.586 290.010,148.586 289.900 C 148.586 289.790,148.457 289.475,148.300 289.200 C 148.143 288.925,148.014 288.790,148.014 288.900 M149.900 292.800 C 150.071 293.130,150.255 293.400,150.310 293.400 C 150.365 293.400,150.271 293.130,150.100 292.800 C 149.929 292.470,149.745 292.200,149.690 292.200 C 149.635 292.200,149.729 292.470,149.900 292.800 M152.600 297.200 C 152.835 297.530,153.072 297.800,153.127 297.800 C 153.182 297.800,153.035 297.530,152.800 297.200 C 152.565 296.870,152.328 296.600,152.273 296.600 C 152.218 296.600,152.365 296.870,152.600 297.200 M153.596 298.594 C 153.828 298.921,154.121 299.251,154.246 299.328 C 154.370 299.405,154.221 299.138,153.913 298.734 C 153.244 297.858,152.992 297.746,153.596 298.594 M255.458 302.150 C 255.387 302.343,255.233 302.574,255.115 302.665 C 254.976 302.772,255.000 302.804,255.181 302.755 C 255.441 302.685,255.910 301.800,255.687 301.800 C 255.632 301.800,255.529 301.957,255.458 302.150 M158.200 303.900 C 159.241 304.945,160.137 305.800,160.192 305.800 C 160.247 305.800,159.441 304.945,158.400 303.900 C 157.359 302.855,156.463 302.000,156.408 302.000 C 156.353 302.000,157.159 302.855,158.200 303.900 M171.600 313.300 C 172.095 313.565,172.590 313.782,172.700 313.782 C 172.810 313.782,172.495 313.565,172.000 313.300 C 171.505 313.035,171.010 312.818,170.900 312.818 C 170.790 312.818,171.105 313.035,171.600 313.300 M241.100 314.600 C 240.848 314.708,240.811 314.772,241.000 314.772 C 241.165 314.772,241.480 314.695,241.700 314.600 C 241.952 314.492,241.989 314.428,241.800 314.428 C 241.635 314.428,241.320 314.505,241.100 314.600 M177.100 315.507 C 177.430 315.658,177.835 315.779,178.000 315.776 C 178.165 315.772,177.985 315.648,177.600 315.500 C 176.687 315.148,176.328 315.154,177.100 315.507 M184.000 317.400 C 184.275 317.488,184.725 317.558,185.000 317.556 C 185.449 317.553,185.439 317.537,184.900 317.400 C 184.054 317.185,183.328 317.185,184.000 317.400 M227.850 317.338 C 228.043 317.388,228.357 317.388,228.550 317.338 C 228.743 317.288,228.585 317.246,228.200 317.246 C 227.815 317.246,227.657 317.288,227.850 317.338 M226.450 317.538 C 226.643 317.588,226.957 317.588,227.150 317.538 C 227.343 317.488,227.185 317.446,226.800 317.446 C 226.415 317.446,226.257 317.488,226.450 317.538 M224.850 317.738 C 225.043 317.788,225.357 317.788,225.550 317.738 C 225.743 317.688,225.585 317.646,225.200 317.646 C 224.815 317.646,224.657 317.688,224.850 317.738 M222.952 317.941 C 223.201 317.989,223.561 317.987,223.752 317.937 C 223.944 317.887,223.740 317.848,223.300 317.850 C 222.860 317.853,222.704 317.894,222.952 317.941 M220.750 318.141 C 220.998 318.189,221.403 318.189,221.650 318.141 C 221.898 318.093,221.695 318.054,221.200 318.054 C 220.705 318.054,220.503 318.093,220.750 318.141 M189.650 318.338 C 189.843 318.388,190.158 318.388,190.350 318.338 C 190.543 318.288,190.385 318.246,190.000 318.246 C 189.615 318.246,189.458 318.288,189.650 318.338 M218.250 318.343 C 218.553 318.389,219.048 318.389,219.350 318.343 C 219.653 318.297,219.405 318.260,218.800 318.260 C 218.195 318.260,217.947 318.297,218.250 318.343 M191.150 318.541 C 191.398 318.589,191.803 318.589,192.050 318.541 C 192.298 318.493,192.095 318.454,191.600 318.454 C 191.105 318.454,190.903 318.493,191.150 318.541 M215.350 318.545 C 215.707 318.589,216.293 318.589,216.650 318.545 C 217.007 318.500,216.715 318.464,216.000 318.464 C 215.285 318.464,214.993 318.500,215.350 318.545 M193.550 318.741 C 193.798 318.789,194.203 318.789,194.450 318.741 C 194.697 318.693,194.495 318.654,194.000 318.654 C 193.505 318.654,193.303 318.693,193.550 318.741 M211.546 318.744 C 211.901 318.789,212.531 318.789,212.946 318.746 C 213.360 318.703,213.070 318.667,212.300 318.666 C 211.530 318.665,211.190 318.700,211.546 318.744 M197.150 318.947 C 197.728 318.988,198.673 318.988,199.250 318.947 C 199.828 318.907,199.355 318.874,198.200 318.874 C 197.045 318.874,196.572 318.907,197.150 318.947 M201.450 318.938 C 201.643 318.988,201.958 318.988,202.150 318.938 C 202.343 318.888,202.185 318.846,201.800 318.846 C 201.415 318.846,201.258 318.888,201.450 318.938 M204.259 318.949 C 205.117 318.986,206.467 318.986,207.259 318.948 C 208.052 318.910,207.350 318.880,205.700 318.880 C 204.050 318.880,203.402 318.911,204.259 318.949 " stroke="none" fill="#535353" fill-rule="evenodd">
</path>
</g>
</svg>
