<?xml version="1.0" encoding="UTF-8" standalone="no"?>
<svg id="svg" version="1.1" xmlns="http://www.w3.org/2000/svg" xmlns:xlink="http://www.w3.org/1999/xlink" width="400" height="400" viewBox="0, 0, 400,400"><g id="svgg"><path id="path0" d="M109.900 0.129 C 105.468 0.490,103.604 0.687,100.600 1.115 C 46.839 8.774,6.056 51.689,0.359 106.600 C -0.023 110.282,-0.023 289.718,0.359 293.400 C 6.299 350.650,49.350 393.701,106.600 399.641 C 110.282 400.023,289.718 400.023,293.400 399.641 C 350.650 393.701,393.701 350.650,399.641 293.400 C 400.023 289.718,400.023 110.282,399.641 106.600 C 396.114 72.606,379.629 43.196,352.924 23.250 C 335.803 10.463,317.204 3.196,294.600 0.461 C 291.975 0.143,113.666 -0.177,109.900 0.129 M288.600 11.289 C 306.980 12.141,326.761 18.851,342.327 29.512 C 345.753 31.858,351.385 36.205,352.920 37.687 C 353.041 37.804,354.068 38.755,355.203 39.800 C 373.806 56.937,386.037 81.809,388.397 107.300 C 388.520 108.620,388.657 110.105,388.703 110.600 C 388.812 111.777,388.812 288.223,388.703 289.400 C 388.657 289.895,388.520 291.380,388.397 292.700 C 386.119 317.306,374.135 342.343,356.812 358.685 C 356.104 359.353,355.204 360.202,354.812 360.571 C 337.600 376.799,314.780 386.637,289.600 388.686 C 287.901 388.824,112.099 388.824,110.400 388.686 C 95.319 387.459,82.595 383.987,69.819 377.615 C 37.198 361.344,14.954 328.900,11.603 292.700 C 11.480 291.380,11.343 289.895,11.297 289.400 C 11.188 288.223,11.188 111.777,11.297 110.600 C 11.343 110.105,11.480 108.620,11.603 107.300 C 16.413 55.337,59.573 13.851,111.500 11.276 C 112.930 11.205,114.115 11.137,114.133 11.124 C 114.260 11.034,286.622 11.198,288.600 11.289 M179.800 66.835 C 169.405 70.665,159.528 74.305,157.850 74.923 L 154.800 76.048 154.800 95.224 L 154.800 114.400 143.900 114.400 L 133.000 114.400 133.000 132.100 L 133.000 149.800 143.900 149.800 L 154.800 149.800 154.802 198.650 C 154.804 245.585,154.862 251.119,155.407 256.000 C 158.499 283.663,174.268 301.085,199.918 305.174 C 214.686 307.528,241.402 305.749,255.150 301.495 L 256.800 300.985 256.800 280.792 C 256.800 269.687,256.768 260.600,256.729 260.600 C 256.689 260.600,255.857 261.064,254.879 261.631 C 246.260 266.625,237.559 268.908,227.200 268.892 C 210.722 268.867,203.191 263.120,200.216 248.300 C 198.855 241.523,198.925 244.251,198.852 194.650 L 198.787 149.800 224.693 149.800 L 250.600 149.800 250.600 132.100 L 250.600 114.400 224.701 114.400 L 198.801 114.400 198.751 87.136 L 198.700 59.872 179.800 66.835 " stroke="none" fill="#b79bec" fill-rule="evenodd"></path><path id="path1" d="M112.500 11.333 C 57.831 14.859,16.672 54.563,11.564 108.700 C 11.174 112.835,11.174 287.165,11.564 291.300 C 16.528 343.913,56.087 383.472,108.700 388.436 C 112.835 388.826,287.165 388.826,291.300 388.436 C 343.919 383.471,383.471 343.919,388.436 291.300 C 388.826 287.165,388.826 112.835,388.436 108.700 C 385.146 73.830,366.863 44.371,337.400 26.467 C 323.624 18.095,309.753 13.582,291.600 11.565 C 289.694 11.354,115.682 11.128,112.500 11.333 M199.000 87.100 L 199.000 114.400 224.800 114.400 L 250.600 114.400 250.600 132.100 C 250.600 147.700,250.564 149.800,250.300 149.800 C 250.135 149.800,250.000 149.935,250.000 150.100 C 250.000 150.287,249.811 150.400,249.500 150.400 C 249.100 150.400,249.000 150.500,249.000 150.900 C 249.000 151.296,248.899 151.400,248.514 151.400 C 248.162 151.400,248.010 151.524,247.964 151.850 C 247.923 152.139,247.739 152.323,247.450 152.364 C 247.167 152.404,247.000 152.566,247.000 152.800 C 247.000 153.034,246.833 153.196,246.550 153.236 C 246.261 153.277,246.077 153.461,246.036 153.750 C 245.995 154.039,245.834 154.200,245.586 154.200 C 245.308 154.200,245.200 154.339,245.200 154.700 C 245.200 155.100,245.100 155.200,244.700 155.200 C 244.300 155.200,244.200 155.300,244.200 155.700 C 244.200 156.100,244.100 156.200,243.700 156.200 C 243.300 156.200,243.200 156.300,243.200 156.700 C 243.200 157.100,243.100 157.200,242.700 157.200 C 242.300 157.200,242.200 157.300,242.200 157.700 C 242.200 158.011,242.087 158.200,241.900 158.200 C 241.735 158.200,241.600 158.320,241.600 158.466 C 241.600 158.613,241.375 158.853,241.100 159.000 C 240.825 159.147,240.600 159.387,240.600 159.534 C 240.600 159.680,240.480 159.800,240.334 159.800 C 240.187 159.800,239.947 160.025,239.800 160.300 C 239.653 160.575,239.413 160.800,239.266 160.800 C 239.120 160.800,239.000 160.920,239.000 161.066 C 239.000 161.213,238.775 161.453,238.500 161.600 C 238.225 161.747,238.000 161.987,238.000 162.134 C 238.000 162.354,234.599 162.400,218.495 162.400 L 198.989 162.400 199.050 201.450 C 199.117 244.304,199.057 242.082,200.319 248.400 C 203.046 262.046,209.851 267.833,224.308 268.801 C 234.494 269.482,245.424 266.916,254.524 261.707 C 255.781 260.988,256.851 260.400,256.904 260.400 C 256.957 260.400,257.000 269.485,257.000 280.590 L 257.000 300.779 256.527 301.290 C 256.267 301.570,255.952 301.800,255.827 301.800 C 255.702 301.800,255.600 301.978,255.600 302.196 C 255.600 302.455,255.422 302.637,255.085 302.722 C 254.802 302.793,254.490 303.064,254.390 303.325 C 254.291 303.586,254.070 303.800,253.900 303.800 C 253.730 303.800,253.505 304.025,253.400 304.300 C 253.295 304.575,253.073 304.800,252.905 304.800 C 252.734 304.800,252.600 304.974,252.600 305.196 C 252.600 305.455,252.422 305.637,252.085 305.722 C 251.802 305.793,251.490 306.064,251.390 306.325 C 251.291 306.586,251.073 306.800,250.905 306.800 C 250.737 306.800,250.600 306.971,250.600 307.180 C 250.600 307.423,250.383 307.636,250.000 307.770 C 249.670 307.885,249.400 308.104,249.400 308.257 C 249.400 308.411,249.175 308.638,248.900 308.764 C 248.625 308.889,248.400 309.128,248.400 309.296 C 248.400 309.463,248.310 309.600,248.200 309.600 C 248.090 309.600,248.000 309.735,248.000 309.900 C 248.000 310.065,247.914 310.200,247.809 310.200 C 247.553 310.200,245.400 312.345,245.400 312.600 C 245.400 312.710,245.313 312.800,245.207 312.800 C 245.101 312.800,244.751 313.056,244.431 313.370 C 240.983 316.740,207.055 320.186,192.500 318.645 C 161.254 315.335,144.244 296.407,142.405 262.900 C 142.286 260.724,142.206 240.133,142.204 210.850 L 142.200 162.400 131.300 162.400 L 120.400 162.400 120.400 144.700 C 120.400 130.099,120.447 127.000,120.666 127.000 C 120.813 127.000,121.053 126.775,121.200 126.500 C 121.347 126.225,121.587 126.000,121.734 126.000 C 121.880 126.000,122.000 125.904,122.000 125.786 C 122.000 125.668,122.129 125.443,122.286 125.286 C 122.443 125.129,122.668 125.000,122.786 125.000 C 122.904 125.000,123.000 124.865,123.000 124.700 C 123.000 124.535,123.120 124.400,123.266 124.400 C 123.413 124.400,123.653 124.175,123.800 123.900 C 123.947 123.625,124.187 123.400,124.334 123.400 C 124.480 123.400,124.600 123.265,124.600 123.100 C 124.600 122.935,124.774 122.800,124.986 122.800 C 125.234 122.800,125.395 122.639,125.436 122.350 C 125.482 122.028,125.656 121.882,126.050 121.837 C 126.482 121.787,126.600 121.669,126.600 121.287 C 126.600 120.901,126.704 120.800,127.100 120.800 C 127.500 120.800,127.600 120.700,127.600 120.300 C 127.600 119.933,127.707 119.800,128.000 119.800 C 128.268 119.800,128.400 119.667,128.400 119.395 C 128.400 119.105,128.570 118.956,129.000 118.870 C 129.411 118.788,129.600 118.632,129.600 118.375 C 129.600 118.133,129.742 118.000,130.000 118.000 C 130.293 118.000,130.400 117.867,130.400 117.500 C 130.400 117.100,130.500 117.000,130.900 117.000 C 131.300 117.000,131.400 116.900,131.400 116.500 C 131.400 116.078,131.493 116.000,132.000 116.000 C 132.507 116.000,132.600 115.922,132.600 115.500 C 132.600 115.225,132.690 115.000,132.800 115.000 C 132.910 115.000,133.000 114.865,133.000 114.700 C 133.000 114.442,133.644 114.400,137.600 114.400 L 142.200 114.400 142.200 101.639 L 142.200 88.879 144.569 86.539 C 145.871 85.253,147.041 84.200,147.169 84.200 C 147.296 84.200,147.400 84.063,147.400 83.896 C 147.400 83.728,147.625 83.489,147.900 83.364 C 148.175 83.238,148.400 83.013,148.400 82.864 C 148.400 82.714,148.625 82.489,148.900 82.364 C 149.175 82.238,149.400 82.013,149.400 81.864 C 149.400 81.714,149.625 81.489,149.900 81.364 C 150.175 81.238,150.400 81.013,150.400 80.864 C 150.400 80.714,150.625 80.489,150.900 80.364 C 151.175 80.238,151.400 80.013,151.400 79.864 C 151.400 79.714,151.625 79.489,151.900 79.364 C 152.175 79.238,152.400 79.013,152.400 78.863 C 152.400 78.713,152.625 78.505,152.900 78.400 C 153.175 78.295,153.400 78.070,153.400 77.900 C 153.400 77.730,153.604 77.512,153.854 77.418 C 154.103 77.323,154.427 76.942,154.574 76.572 L 154.840 75.900 176.670 67.861 C 188.677 63.439,198.613 59.817,198.750 59.811 C 198.949 59.802,199.000 65.388,199.000 87.100 " stroke="none" fill="#0c0c0c" fill-rule="evenodd"></path><path id="path2" d="M112.150 11.341 C 112.397 11.389,112.803 11.389,113.050 11.341 C 113.297 11.293,113.095 11.254,112.600 11.254 C 112.105 11.254,111.903 11.293,112.150 11.341 M286.950 11.341 C 287.197 11.389,287.603 11.389,287.850 11.341 C 288.098 11.293,287.895 11.254,287.400 11.254 C 286.905 11.254,286.703 11.293,286.950 11.341 M108.750 11.541 C 108.998 11.589,109.403 11.589,109.650 11.541 C 109.897 11.493,109.695 11.454,109.200 11.454 C 108.705 11.454,108.503 11.493,108.750 11.541 M290.350 11.541 C 290.598 11.589,291.002 11.589,291.250 11.541 C 291.498 11.493,291.295 11.454,290.800 11.454 C 290.305 11.454,290.103 11.493,290.350 11.541 M198.897 87.100 C 198.897 102.170,198.921 108.305,198.950 100.734 C 198.979 93.163,198.979 80.833,198.950 73.334 C 198.921 65.835,198.897 72.030,198.897 87.100 M154.400 76.900 C 154.295 77.175,154.070 77.400,153.900 77.400 C 153.730 77.400,153.509 77.613,153.410 77.873 C 153.312 78.133,153.044 78.394,152.815 78.454 C 152.587 78.514,152.400 78.692,152.400 78.849 C 152.400 79.007,152.175 79.238,151.900 79.364 C 151.625 79.489,151.400 79.714,151.400 79.864 C 151.400 80.013,151.175 80.238,150.900 80.364 C 150.625 80.489,150.400 80.714,150.400 80.864 C 150.400 81.013,150.175 81.238,149.900 81.364 C 149.625 81.489,149.400 81.714,149.400 81.864 C 149.400 82.013,149.175 82.238,148.900 82.364 C 148.625 82.489,148.400 82.714,148.400 82.864 C 148.400 83.013,148.175 83.238,147.900 83.364 C 147.625 83.489,147.400 83.728,147.400 83.896 C 147.400 84.063,147.296 84.200,147.169 84.200 C 147.041 84.200,145.871 85.253,144.569 86.539 L 142.200 88.879 142.200 101.639 L 142.200 114.400 148.500 114.400 L 154.800 114.400 154.800 95.400 C 154.800 84.950,154.753 76.400,154.695 76.400 C 154.637 76.400,154.505 76.625,154.400 76.900 M11.446 109.200 C 11.446 109.585,11.488 109.743,11.538 109.550 C 11.588 109.358,11.588 109.043,11.538 108.850 C 11.488 108.658,11.446 108.815,11.446 109.200 M388.446 109.200 C 388.446 109.585,388.488 109.743,388.538 109.550 C 388.588 109.358,388.588 109.043,388.538 108.850 C 388.488 108.658,388.446 108.815,388.446 109.200 M11.254 112.600 C 11.254 113.095,11.293 113.297,11.341 113.050 C 11.389 112.803,11.389 112.397,11.341 112.150 C 11.293 111.903,11.254 112.105,11.254 112.600 M388.657 112.700 C 388.659 113.250,388.698 113.451,388.744 113.147 C 388.789 112.843,388.788 112.393,388.741 112.147 C 388.693 111.901,388.656 112.150,388.657 112.700 M132.600 115.500 C 132.600 115.922,132.507 116.000,132.000 116.000 C 131.493 116.000,131.400 116.078,131.400 116.500 C 131.400 116.900,131.300 117.000,130.900 117.000 C 130.500 117.000,130.400 117.100,130.400 117.500 C 130.400 117.867,130.293 118.000,130.000 118.000 C 129.742 118.000,129.600 118.133,129.600 118.375 C 129.600 118.632,129.411 118.788,129.000 118.870 C 128.570 118.956,128.400 119.105,128.400 119.395 C 128.400 119.667,128.268 119.800,128.000 119.800 C 127.707 119.800,127.600 119.933,127.600 120.300 C 127.600 120.700,127.500 120.800,127.100 120.800 C 126.704 120.800,126.600 120.901,126.600 121.287 C 126.600 121.669,126.482 121.787,126.050 121.837 C 125.656 121.882,125.482 122.028,125.436 122.350 C 125.395 122.639,125.234 122.800,124.986 122.800 C 124.774 122.800,124.600 122.935,124.600 123.100 C 124.600 123.265,124.480 123.400,124.334 123.400 C 124.187 123.400,123.947 123.625,123.800 123.900 C 123.653 124.175,123.413 124.400,123.266 124.400 C 123.120 124.400,123.000 124.535,123.000 124.700 C 123.000 124.865,122.904 125.000,122.786 125.000 C 122.668 125.000,122.443 125.129,122.286 125.286 C 122.129 125.443,122.000 125.668,122.000 125.786 C 122.000 125.904,121.880 126.000,121.734 126.000 C 121.587 126.000,121.347 126.225,121.200 126.500 C 121.053 126.775,120.813 127.000,120.666 127.000 C 120.447 127.000,120.400 130.099,120.400 144.700 L 120.400 162.400 131.300 162.400 L 142.200 162.400 142.204 210.850 C 142.206 240.133,142.286 260.724,142.405 262.900 C 144.244 296.407,161.254 315.335,192.500 318.645 C 207.055 320.186,240.983 316.740,244.431 313.370 C 244.751 313.056,245.101 312.800,245.207 312.800 C 245.313 312.800,245.400 312.710,245.400 312.600 C 245.400 312.345,247.553 310.200,247.809 310.200 C 247.914 310.200,248.000 310.065,248.000 309.900 C 248.000 309.735,248.090 309.600,248.200 309.600 C 248.310 309.600,248.400 309.463,248.400 309.296 C 248.400 309.128,248.625 308.889,248.900 308.764 C 249.175 308.638,249.400 308.411,249.400 308.257 C 249.400 308.104,249.670 307.885,250.000 307.770 C 250.383 307.636,250.600 307.423,250.600 307.180 C 250.600 306.971,250.737 306.800,250.905 306.800 C 251.073 306.800,251.291 306.586,251.390 306.325 C 251.490 306.064,251.802 305.793,252.085 305.722 C 252.422 305.637,252.600 305.455,252.600 305.196 C 252.600 304.974,252.734 304.800,252.905 304.800 C 253.073 304.800,253.295 304.575,253.400 304.300 C 253.505 304.025,253.730 303.800,253.900 303.800 C 254.070 303.800,254.291 303.586,254.390 303.325 C 254.490 303.064,254.802 302.793,255.085 302.722 C 255.422 302.637,255.600 302.455,255.600 302.196 C 255.600 301.978,255.732 301.800,255.893 301.800 C 256.054 301.800,256.271 301.642,256.374 301.448 C 256.534 301.149,256.271 301.192,254.610 301.735 C 245.757 304.627,232.969 306.073,216.100 306.090 C 205.552 306.100,204.484 306.042,199.300 305.179 C 175.561 301.227,160.219 285.526,156.014 260.881 C 154.858 254.107,154.931 257.867,154.858 201.650 L 154.790 150.000 143.895 150.000 L 133.000 150.000 133.000 132.500 C 133.000 120.967,132.932 115.000,132.800 115.000 C 132.690 115.000,132.600 115.225,132.600 115.500 M224.474 149.950 L 199.048 150.002 198.912 162.451 C 198.837 169.298,198.804 188.355,198.838 204.800 L 198.901 234.700 198.951 198.550 L 199.000 162.400 218.500 162.400 C 234.600 162.400,238.000 162.354,238.000 162.134 C 238.000 161.987,238.225 161.747,238.500 161.600 C 238.775 161.453,239.000 161.213,239.000 161.066 C 239.000 160.920,239.120 160.800,239.266 160.800 C 239.413 160.800,239.653 160.575,239.800 160.300 C 239.947 160.025,240.187 159.800,240.334 159.800 C 240.480 159.800,240.600 159.680,240.600 159.534 C 240.600 159.387,240.825 159.147,241.100 159.000 C 241.375 158.853,241.600 158.613,241.600 158.466 C 241.600 158.320,241.735 158.200,241.900 158.200 C 242.087 158.200,242.200 158.011,242.200 157.700 C 242.200 157.300,242.300 157.200,242.700 157.200 C 243.100 157.200,243.200 157.100,243.200 156.700 C 243.200 156.300,243.300 156.200,243.700 156.200 C 244.100 156.200,244.200 156.100,244.200 155.700 C 244.200 155.300,244.300 155.200,244.700 155.200 C 245.100 155.200,245.200 155.100,245.200 154.700 C 245.200 154.339,245.308 154.200,245.586 154.200 C 245.834 154.200,245.995 154.039,246.036 153.750 C 246.077 153.461,246.261 153.277,246.550 153.236 C 246.833 153.196,247.000 153.034,247.000 152.800 C 247.000 152.566,247.167 152.404,247.450 152.364 C 247.739 152.323,247.923 152.139,247.964 151.850 C 248.010 151.524,248.162 151.400,248.514 151.400 C 248.899 151.400,249.000 151.296,249.000 150.900 C 249.000 150.500,249.100 150.400,249.500 150.400 C 249.811 150.400,250.000 150.287,250.000 150.100 C 250.000 149.935,249.978 149.822,249.950 149.849 C 249.923 149.876,238.458 149.922,224.474 149.950 M206.592 262.250 C 207.420 263.133,207.600 263.292,207.600 263.142 C 207.600 263.110,207.173 262.682,206.650 262.192 L 205.700 261.300 206.592 262.250 M225.050 268.938 C 225.243 268.988,225.558 268.988,225.750 268.938 C 225.943 268.888,225.785 268.846,225.400 268.846 C 225.015 268.846,224.857 268.888,225.050 268.938 M388.657 287.300 C 388.659 287.850,388.698 288.051,388.744 287.747 C 388.789 287.443,388.788 286.993,388.741 286.747 C 388.693 286.501,388.656 286.750,388.657 287.300 M11.254 287.400 C 11.254 287.895,11.293 288.098,11.341 287.850 C 11.389 287.603,11.389 287.197,11.341 286.950 C 11.293 286.703,11.254 286.905,11.254 287.400 M11.446 290.800 C 11.446 291.185,11.488 291.343,11.538 291.150 C 11.588 290.957,11.588 290.643,11.538 290.450 C 11.488 290.257,11.446 290.415,11.446 290.800 M388.446 290.800 C 388.446 291.185,388.488 291.343,388.538 291.150 C 388.588 290.957,388.588 290.643,388.538 290.450 C 388.488 290.257,388.446 290.415,388.446 290.800 M108.850 388.538 C 109.043 388.588,109.358 388.588,109.550 388.538 C 109.743 388.488,109.585 388.446,109.200 388.446 C 108.815 388.446,108.658 388.488,108.850 388.538 M290.450 388.538 C 290.643 388.588,290.957 388.588,291.150 388.538 C 291.343 388.488,291.185 388.446,290.800 388.446 C 290.415 388.446,290.257 388.488,290.450 388.538 M112.150 388.741 C 112.397 388.789,112.803 388.789,113.050 388.741 C 113.297 388.693,113.095 388.654,112.600 388.654 C 112.105 388.654,111.903 388.693,112.150 388.741 M286.950 388.741 C 287.197 388.789,287.603 388.789,287.850 388.741 C 288.098 388.693,287.895 388.654,287.400 388.654 C 286.905 388.654,286.703 388.693,286.950 388.741 " stroke="none" fill="#6b6b6b" fill-rule="evenodd"></path><path id="path3" d="M138.464 149.950 C 141.524 149.981,146.474 149.981,149.464 149.950 C 152.454 149.919,149.950 149.893,143.900 149.893 C 137.850 149.893,135.404 149.919,138.464 149.950 M211.650 149.950 C 218.663 149.979,230.138 149.979,237.150 149.950 C 244.163 149.921,238.425 149.897,224.400 149.897 C 210.375 149.897,204.638 149.921,211.650 149.950 " stroke="none" fill="#747474" fill-rule="evenodd"></path><path id="path4" d="M198.889 156.100 C 198.889 159.620,198.917 161.032,198.950 159.237 C 198.983 157.443,198.983 154.563,198.950 152.837 C 198.916 151.112,198.889 152.580,198.889 156.100 M198.854 235.800 C 198.854 236.295,198.893 236.498,198.941 236.250 C 198.989 236.003,198.989 235.597,198.941 235.350 C 198.893 235.103,198.854 235.305,198.854 235.800 M154.857 249.700 C 154.859 250.250,154.898 250.451,154.944 250.147 C 154.989 249.843,154.988 249.393,154.941 249.147 C 154.893 248.901,154.856 249.150,154.857 249.700 M256.750 273.450 C 256.778 280.627,256.824 289.740,256.853 293.700 C 256.882 297.660,256.926 291.788,256.953 280.650 C 256.979 269.512,256.933 260.400,256.850 260.400 C 256.768 260.400,256.723 266.272,256.750 273.450 M230.250 268.938 C 230.443 268.988,230.757 268.988,230.950 268.938 C 231.143 268.888,230.985 268.846,230.600 268.846 C 230.215 268.846,230.058 268.888,230.250 268.938 M170.700 291.200 C 171.464 291.970,172.134 292.600,172.189 292.600 C 172.244 292.600,171.664 291.970,170.900 291.200 C 170.136 290.430,169.466 289.800,169.411 289.800 C 169.356 289.800,169.936 290.430,170.700 291.200 M226.552 305.941 C 226.801 305.989,227.161 305.987,227.352 305.937 C 227.544 305.887,227.340 305.848,226.900 305.850 C 226.460 305.853,226.304 305.894,226.552 305.941 M207.752 306.141 C 208.001 306.189,208.361 306.187,208.552 306.137 C 208.744 306.087,208.540 306.048,208.100 306.050 C 207.660 306.053,207.504 306.094,207.752 306.141 M221.550 306.145 C 221.907 306.189,222.493 306.189,222.850 306.145 C 223.207 306.100,222.915 306.064,222.200 306.064 C 221.485 306.064,221.193 306.100,221.550 306.145 " stroke="none" fill="#808080" fill-rule="evenodd"></path></g></svg>